# xmcd
#
# Track frame offsets: 
#        150
#        11120
#        26425
#        47385
#        70869
#        82047
#        98476
#        114467
#        145863
#        157668
#        169157
#        183230
#        216283
#        239105
#        257980
#
# Disc length: 3926 seconds
#
# Revision: 0
# Processed by: cddbd v1.4PL0 Copyright (c) Steve Scherf et al.
# Submitted via: ExactAudioCopy v0.90b4
#
DISCID=c50f540f
DTITLE=Van Morrison - You're Not A Rented Audience Are You CD1
DYEAR=1992
DGENRE=R&B
TTITLE0=Professional Jealousy
TTITLE1=The Mystery
TTITLE2=Peace of Mind
TTITLE3=Haunts of Ancient Peace
TTITLE4=All Saint's Day
TTITLE5=Allow Me - Momma Don't Allow
TTITLE6=So Complicated
TTITLE7=Sweet Thing
TTITLE8=My Lagan Love
TTITLE9=Star of the County Down
TTITLE10=Why Must I Always Explain
TTITLE11=Vanlose Stairway
TTITLE12=Cleaning Windows - Be Bop a Lula
TTITLE13=It Fills You Up
TTITLE14=Help Me
EXTD=
EXTT0=
EXTT1=
EXTT2=
EXTT3=
EXTT4=
EXTT5=
EXTT6=
EXTT7=
EXTT8=
EXTT9=
EXTT10=
EXTT11=
EXTT12=
EXTT13=
EXTT14=
PLAYORDER=
